<?xml version="1.0" encoding="utf-8"?>
<!-- Created by sK1 2.0rc5 (https://sk1project.net/) -->
<svg xmlns="http://www.w3.org/2000/svg" height="32.0px" width="32.0px" version="1.1" xmlns:xlink="http://www.w3.org/1999/xlink" id="0d3c53ee-2bc2-11ec-8e8a-f48c508b35b3">

<g>
	<g>
	</g>
	<g>
		<path style="fill:#2d2c2b;" d="M 14.0801,31.9941 L 10.6729,31.9941 C 9.0029,31.9941 7.682,31.4492 6.7098,30.3598 5.7373,29.27 5.2509,27.6747 5.2512,25.5735 L 5.2512,23.1016 C 5.2509,21.2318 4.9268,19.8875 4.2784,19.0688 3.6296,18.2505 2.5097,17.8416 0.9187,17.8412 L 0.0756,17.8412 0.0756,13.9637 0.9187,13.9637 C 2.5097,13.9637 3.6296,13.56 4.2784,12.7527 4.9268,11.9454 5.2509,10.6201 5.2512,8.776 L 5.2512,6.3374 C 5.2509,4.2646 5.7373,2.6909 6.7098,1.6162 7.682,0.5419 9.0029,0.0046 10.6729,0.0046 L 14.0801,0.0046 14.0801,3.5913 12.6554,3.5913 C 12.1327,3.5917 11.6603,3.6405 11.2384,3.7382 10.8159,3.8363 10.4609,4.0215 10.1734,4.2941 9.8776,4.577 9.6555,4.9882 9.5075,5.527 9.3588,6.0666 9.2848,6.7607 9.2851,7.6097 L 9.2851,9.4545 C 9.2848,11.023 8.9348,12.3214 8.2356,13.3502 7.5357,14.3795 6.6048,15.1663 5.4426,15.7101 L 5.4426,16.0948 C 6.6048,16.6484 7.5357,17.4478 8.2356,18.4925 8.9348,19.538 9.2848,20.8573 9.2851,22.4503 L 9.2851,24.3254 C 9.2848,25.188 9.3588,25.8927 9.5075,26.4407 9.6555,26.9882 9.8776,27.4059 10.1734,27.694 10.4523,27.9814 10.8052,28.1723 11.2319,28.2666 11.6582,28.3601 12.1327,28.4071 12.6554,28.4074 L 14.0801,28.4074 Z" />
	</g>
	<g>
		<path style="fill:#2d2c2b;" d="M 32.0897,17.8691 L 31.2489,17.8691 C 29.6618,17.8695 28.5453,18.2776 27.8987,19.0943 27.2518,19.9114 26.9284,21.253 26.9286,23.1191 L 26.9286,25.5862 C 26.9284,27.6832 26.4436,29.2754 25.4741,30.363 24.5044,31.4503 23.1869,31.9941 21.5222,31.9941 L 18.1246,31.9941 18.1246,28.4145 19.5453,28.4145 C 20.0662,28.4141 20.537,28.3646 20.9583,28.2656 21.379,28.1662 21.7329,27.9784 22.0202,27.7025 22.3149,27.4149 22.5364,26.9981 22.6843,26.4516 22.832,25.9048 22.9058,25.2014 22.9061,24.3406 L 22.9061,22.4691 C 22.9058,20.8792 23.2547,19.5626 23.9526,18.5191 24.6502,17.4765 25.5785,16.6787 26.7377,16.1262 L 26.7377,15.7422 C 25.5785,15.1995 24.6502,14.4142 23.9526,13.387 23.2547,12.3602 22.9058,11.0643 22.9061,9.499 L 22.9061,7.6578 C 22.9058,6.8105 22.832,6.1178 22.6843,5.5793 22.5364,5.0415 22.3149,4.6311 22.0202,4.3488 21.7329,4.0767 21.379,3.8919 20.9583,3.794 20.537,3.6965 20.0662,3.6477 19.5453,3.6474 L 18.1246,3.6474 18.1246,0.0677 21.5222,0.0677 C 23.1869,0.0677 24.5044,0.604 25.4741,1.6761 26.4436,2.7487 26.9284,4.3193 26.9286,6.388 L 26.9286,8.8218 C 26.9284,10.6622 27.2518,11.985 27.8987,12.7907 28.5453,13.5964 29.6618,13.9992 31.2489,13.9992 L 32.0897,13.9992 Z" />
	</g>
</g>
</svg>