<?xml version="1.0" encoding="utf-8"?>
<!-- Generator: Adobe Illustrator 24.1.1, SVG Export Plug-In . SVG Version: 6.00 Build 0)  -->
<svg version="1.1" id="Layer_1" xmlns="http://www.w3.org/2000/svg" xmlns:xlink="http://www.w3.org/1999/xlink" x="0px" y="0px"
	 viewBox="0 0 32 32" style="enable-background:new 0 0 32 32;" xml:space="preserve">
<style type="text/css">
	.st0{fill:none;stroke:#000000;stroke-width:5;stroke-miterlimit:10;}
</style>
<path class="st0" d="M7,8.9c0-2.6,2.5-4.7,5.7-4.7"/>
<path class="st0" d="M7,8.9c0,3.8-2.5,6.9-5.6,6.9"/>
<path class="st0" d="M24.2,8.9c0-2.6-2.5-4.7-5.7-4.7"/>
<path class="st0" d="M24.2,8.9c0,3.8,2.5,6.9,5.6,6.9"/>
<path class="st0" d="M7.1,23.4c0,2.6,2.5,4.7,5.7,4.7"/>
<path class="st0" d="M7.1,23.4c0-3.8-2.5-6.9-5.6-6.9"/>
<path class="st0" d="M24.3,23.4c0,2.6-2.5,4.7-5.7,4.7"/>
<path class="st0" d="M24.3,23.4c0-3.8,2.5-6.9,5.6-6.9"/>
</svg>
