<?xml version="1.0" encoding="utf-8"?>
<!-- Created by sK1 2.0rc5 (https://sk1project.net/) -->
<svg xmlns="http://www.w3.org/2000/svg" height="200.0px" width="200.0px" version="1.1" xmlns:xlink="http://www.w3.org/1999/xlink" id="66500d00-2c54-11ec-aed7-f48c508b35b3">

<g>
	<path style="fill:#2c2c2c;" d="M 170.0174,85.9992 L 125.7493,85.9992 143.641,68.2744 C 134.0944,56.6786 119.6726,49.3303 103.5219,49.3303 75.0033,49.3303 51.8757,72.2421 51.8757,100.4946 51.8757,128.7471 75.0033,151.6589 103.5219,151.6589 117.7369,151.6589 130.6124,145.9665 139.9522,136.7577 L 150.3919,147.1039 C 138.3791,158.9669 121.8057,166.3046 103.5058,166.3046 66.839,166.3046 37.1035,136.8466 37.1035,100.5219 37.1035,64.1973 66.839,34.7393 103.5058,34.7393 123.7172,34.7393 141.8226,43.6899 154.0026,57.8074 L 170.0174,42.1441 170.0174,85.9992 Z" />
</g>
</svg>