<?xml version="1.0" encoding="utf-8"?>
<!-- Created by sK1 2.0rc5 (https://sk1project.net/) -->
<svg xmlns="http://www.w3.org/2000/svg" height="64.0px" width="64.0px" version="1.1" xmlns:xlink="http://www.w3.org/1999/xlink" id="92f9b9b0-2c53-11ec-a86c-f48c508b35b3">

<g>
	<g>
		<path style="fill:#2d2c2b;" d="M 25.923,57.7201 L 22.8948,57.7201 C 19.7792,57.7201 17.3382,56.8622 15.5722,55.1474 13.8058,53.4318 12.9226,50.9208 12.923,47.6138 L 12.923,43.7216 C 12.9226,42.5208 12.8105,41.3111 12.5863,40.0919 12.3616,38.8736 11.9296,37.8286 11.2902,36.9576 10.6503,36.0868 9.8167,35.4294 8.7894,34.9857 7.7616,34.5419 6.4874,34.3201 4.9667,34.3201 L 4.423,34.3201 4.423,30.3201 4.9667,30.3201 C 6.4874,30.3204 7.7616,30.0993 8.7894,29.6568 9.8167,29.215 10.6503,28.5607 11.2902,27.6935 11.9296,26.8271 12.3616,25.7868 12.5863,24.5732 12.8105,23.3599 12.9226,22.1552 12.923,20.9591 L 12.923,17.0841 C 12.9226,13.7904 13.8058,11.2896 15.5722,9.5818 17.3382,7.874 19.7792,7.0201 22.8948,7.0201 L 25.923,7.0201 25.923,10.5201 23.8167,10.5201 C 22.78,10.5204 21.8847,10.6247 21.13,10.8333 20.3753,11.0423 19.7261,11.399 19.1823,11.9029 18.6198,12.4251 18.2027,13.1466 17.9308,14.0677 17.6589,14.9892 17.523,16.1193 17.523,17.4576 L 17.523,22.0232 C 17.523,23.4486 17.3593,24.6482 17.0323,25.6216 16.705,26.5958 16.2226,27.5087 15.5855,28.3607 15.0175,29.1255 14.2773,29.8251 13.3644,30.4599 12.4511,31.0951 11.5038,31.6126 10.523,32.0122 L 10.523,32.6279 C 11.5038,33.0302 12.4468,33.5501 13.3511,34.1872 14.255,34.8251 14.9995,35.5283 15.5855,36.2966 16.2226,37.1533 16.705,38.0704 17.0323,39.0482 17.3593,40.0267 17.523,41.2318 17.523,42.6638 L 17.523,47.2497 C 17.523,48.5947 17.6589,49.7298 17.9308,50.656 18.2027,51.5818 18.6198,52.3068 19.1823,52.831 19.7081,53.338 20.3527,53.6962 21.1167,53.906 21.88,54.115 22.78,54.2197 23.8167,54.2201 L 25.923,54.2201 Z" />
	</g>
	<g>
		<path style="fill:#2d2c2b;" d="M 60.0418,34.3201 L 59.4981,34.3201 C 57.977,34.3201 56.7028,34.5419 55.6754,34.9857 54.6477,35.4294 53.8141,36.0868 53.1747,36.9576 52.5348,37.8286 52.1028,38.8736 51.8786,40.0919 51.6539,41.3111 51.5414,42.5208 51.5418,43.7216 L 51.5418,47.6138 C 51.5414,50.9208 50.6586,53.4318 48.8926,55.1474 47.1262,56.8622 44.6852,57.7201 41.57,57.7201 L 38.5418,57.7201 38.5418,54.2201 40.6481,54.2201 C 41.684,54.2197 42.5797,54.115 43.3348,53.906 44.0891,53.6962 44.7383,53.338 45.2825,52.831 45.8446,52.3068 46.2618,51.5818 46.534,50.656 46.8055,49.7298 46.9414,48.5947 46.9418,47.2497 L 46.9418,42.6638 C 46.9414,41.2318 47.1051,40.0267 47.4325,39.0482 47.7594,38.0704 48.2414,37.1533 48.8793,36.2966 49.4465,35.5283 50.1872,34.8251 51.1004,34.1872 52.0133,33.5501 52.9602,33.0302 53.9418,32.6279 L 53.9418,32.0122 C 52.9602,31.6126 52.0133,31.0951 51.1004,30.4599 50.1872,29.8251 49.4465,29.1255 48.8793,28.3607 48.2414,27.5087 47.7594,26.5958 47.4325,25.6216 47.1051,24.6482 46.9414,23.4486 46.9418,22.0232 L 46.9418,17.4576 C 46.9414,16.1193 46.8055,14.9892 46.534,14.0677 46.2618,13.1466 45.8446,12.4251 45.2825,11.9029 44.7383,11.399 44.0891,11.0423 43.3348,10.8333 42.5797,10.6247 41.684,10.5204 40.6481,10.5201 L 38.5418,10.5201 38.5418,7.0201 41.57,7.0201 C 44.6852,7.0201 47.1262,7.874 48.8926,9.5818 50.6586,11.2896 51.5414,13.7904 51.5418,17.0841 L 51.5418,20.9591 C 51.5414,22.1552 51.6539,23.3599 51.8786,24.5732 52.1028,25.7868 52.5348,26.8271 53.1747,27.6935 53.8141,28.5607 54.6477,29.215 55.6754,29.6568 56.7028,30.0993 57.977,30.3204 59.4981,30.3201 L 60.0418,30.3201 Z" />
	</g>
</g>
</svg>