<?xml version="1.0" encoding="utf-8"?>
<!-- Created by sK1 2.0rc5 (https://sk1project.net/) -->
<svg xmlns="http://www.w3.org/2000/svg" height="64.0px" width="64.0px" version="1.1" xmlns:xlink="http://www.w3.org/1999/xlink" id="5d7b928f-2c53-11ec-8a9d-f48c508b35b3">

<g>
	<g>
		<path style="fill:#d9dbdc;" d="M 24.7862,57.0885 L 21.7581,57.0885 C 18.6425,57.0885 16.2014,56.2307 14.4354,54.5159 12.669,52.8002 11.7858,50.2893 11.7862,46.9823 L 11.7862,43.0901 C 11.7858,41.8893 11.6737,40.6795 11.4495,39.4604 11.2249,38.242 10.7928,37.1971 10.1534,36.326 9.5135,35.4553 8.68,34.7979 7.6526,34.3541 6.6249,33.9104 5.3507,33.6885 3.83,33.6885 L 3.2862,33.6885 3.2862,29.6885 3.83,29.6885 C 5.3507,29.6889 6.6249,29.4678 7.6526,29.0252 8.68,28.5834 9.5135,27.9291 10.1534,27.062 10.7928,26.1955 11.2249,25.1553 11.4495,23.9416 11.6737,22.7284 11.7858,21.5237 11.7862,20.3276 L 11.7862,16.4526 C 11.7858,13.1588 12.669,10.658 14.4354,8.9502 16.2014,7.2424 18.6425,6.3885 21.7581,6.3885 L 24.7862,6.3885 24.7862,9.8885 22.68,9.8885 C 21.6432,9.8889 20.7479,9.9932 19.9932,10.2018 19.2385,10.4108 18.5893,10.7674 18.0456,11.2713 17.4831,11.7936 17.0659,12.5151 16.794,13.4362 16.5221,14.3577 16.3862,15.4877 16.3862,16.826 L 16.3862,21.3916 C 16.3862,22.817 16.2225,24.0166 15.8956,24.9901 15.5682,25.9643 15.0858,26.8772 14.4487,27.7291 13.8807,28.494 13.1405,29.1936 12.2276,29.8284 11.3143,30.4635 10.3671,30.9811 9.3862,31.3807 L 9.3862,31.9963 C 10.3671,32.3987 11.31,32.9186 12.2143,33.5557 13.1182,34.1936 13.8628,34.8967 14.4487,35.6651 15.0858,36.5217 15.5682,37.4389 15.8956,38.4166 16.2225,39.3952 16.3862,40.6002 16.3862,42.0323 L 16.3862,46.6182 C 16.3862,47.9631 16.5221,49.0983 16.794,50.0245 17.0659,50.9502 17.4831,51.6752 18.0456,52.1995 18.5714,52.7065 19.2159,53.0647 19.98,53.2745 20.7432,53.4834 21.6432,53.5881 22.68,53.5885 L 24.7862,53.5885 Z" />
	</g>
	<g>
		<path style="fill:#d9dbdc;" d="M 60.4208,33.6885 L 59.877,33.6885 C 58.3559,33.6885 57.0817,33.9104 56.0544,34.3541 55.0266,34.7979 54.193,35.4553 53.5536,36.326 52.9137,37.1971 52.4817,38.242 52.2575,39.4604 52.0329,40.6795 51.9204,41.8893 51.9208,43.0901 L 51.9208,46.9823 C 51.9204,50.2893 51.0376,52.8002 49.2715,54.5159 47.5051,56.2307 45.0641,57.0885 41.9489,57.0885 L 38.9208,57.0885 38.9208,53.5885 41.027,53.5885 C 42.0629,53.5881 42.9587,53.4834 43.7137,53.2745 44.468,53.0647 45.1172,52.7065 45.6614,52.1995 46.2235,51.6752 46.6407,50.9502 46.9129,50.0245 47.1844,49.0983 47.3204,47.9631 47.3208,46.6182 L 47.3208,42.0323 C 47.3204,40.6002 47.484,39.3952 47.8114,38.4166 48.1383,37.4389 48.6204,36.5217 49.2583,35.6651 49.8254,34.8967 50.5661,34.1936 51.4794,33.5557 52.3922,32.9186 53.3391,32.3987 54.3208,31.9963 L 54.3208,31.3807 C 53.3391,30.9811 52.3922,30.4635 51.4794,29.8284 50.5661,29.1936 49.8254,28.494 49.2583,27.7291 48.6204,26.8772 48.1383,25.9643 47.8114,24.9901 47.484,24.0166 47.3204,22.817 47.3208,21.3916 L 47.3208,16.826 C 47.3204,15.4877 47.1844,14.3577 46.9129,13.4362 46.6407,12.5151 46.2235,11.7936 45.6614,11.2713 45.1172,10.7674 44.468,10.4108 43.7137,10.2018 42.9587,9.9932 42.0629,9.8889 41.027,9.8885 L 38.9208,9.8885 38.9208,6.3885 41.9489,6.3885 C 45.0641,6.3885 47.5051,7.2424 49.2715,8.9502 51.0376,10.658 51.9204,13.1588 51.9208,16.4526 L 51.9208,20.3276 C 51.9204,21.5237 52.0329,22.7284 52.2575,23.9416 52.4817,25.1553 52.9137,26.1955 53.5536,27.062 54.193,27.9291 55.0266,28.5834 56.0544,29.0252 57.0817,29.4678 58.3559,29.6889 59.877,29.6885 L 60.4208,29.6885 Z" />
	</g>
</g>
</svg>